<?xml version="1.0" standalone="no"?>
<!DOCTYPE svg PUBLIC "-//W3C//DTD SVG 20010904//EN"
 "http://www.w3.org/TR/2001/REC-SVG-20010904/DTD/svg10.dtd">
<svg version="1.0" xmlns="http://www.w3.org/2000/svg"
 width="400.000000pt" height="400.000000pt" viewBox="0 0 400.000000 400.000000"
 preserveAspectRatio="xMidYMid meet">
<metadata>
Created by potrace 1.11, written by Peter Selinger 2001-2013
</metadata>
<g transform="translate(0.000000,400.000000) scale(0.100000,-0.100000)"
fill="#000000" stroke="none">
<path d="M2016 3649 c-61 -9 -124 -22 -141 -29 -16 -6 -32 -11 -35 -11 -7 1
-70 -18 -95 -29 -87 -37 -190 -89 -240 -123 -63 -41 -187 -138 -182 -143 1 -2
183 -185 405 -407 l403 -404 73 2 73 2 403 403 404 403 -45 40 c-88 79 -318
217 -361 217 -8 0 -18 4 -24 8 -5 4 -25 13 -44 19 -194 64 -395 81 -594 52z"/>
<path d="M1245 3237 c-118 -128 -228 -329 -276 -503 -27 -98 -25 -89 -45 -234
-3 -19 -5 -71 -5 -115 1 -100 6 -152 27 -275 11 -59 58 -199 94 -274 43 -92
141 -242 194 -299 l36 -37 410 410 c366 367 409 413 400 431 -11 19 -8 68 5
88 5 9 -805 833 -817 830 -2 0 -12 -10 -23 -22z"/>
<path d="M2240 2258 c-14 -5 -43 -7 -65 -3 l-40 6 -400 -400 c-220 -220 -401
-405 -403 -411 -8 -24 167 -153 290 -213 114 -56 179 -80 283 -106 128 -31
330 -43 438 -27 20 3 53 8 74 11 206 30 466 152 622 293 l44 40 -409 409
c-382 383 -411 409 -434 401z"/>
<path d="M1922 728 c-17 -17 -15 -55 4 -62 26 -10 61 -7 71 7 9 11 10 44 1 52
-11 11 -66 13 -76 3z"/>
<path d="M1565 712 c-15 -10 -17 -352 -3 -369 13 -17 63 -17 75 0 6 6 10 52
10 101 0 75 3 91 18 103 25 17 40 17 59 -3 13 -13 16 -33 13 -100 -2 -52 0
-90 7 -100 11 -14 70 -23 81 -12 3 2 6 54 7 114 4 149 -8 176 -85 189 -24 5
-87 -28 -87 -45 0 -5 -3 -10 -7 -10 -5 0 -6 26 -4 57 2 46 0 59 -15 70 -20 14
-53 17 -69 5z"/>
<path d="M655 696 c-68 -30 -97 -82 -101 -175 -2 -65 13 -108 53 -149 32 -33
70 -46 131 -44 54 2 118 30 103 45 -6 6 -11 19 -11 28 0 23 -27 32 -53 18 -30
-17 -76 -13 -97 6 -18 16 -35 64 -33 93 0 6 1 23 2 36 0 12 12 35 26 51 22 23
32 26 63 22 20 -3 47 -8 59 -12 25 -8 45 20 37 52 -10 38 -119 55 -179 29z"/>
<path d="M2798 700 c-23 -6 -23 -7 -26 -174 -2 -109 1 -173 8 -181 13 -16 171
-14 212 3 57 23 85 70 93 157 9 86 -26 153 -94 181 -36 15 -152 23 -193 14z
m147 -80 c29 -11 46 -48 47 -102 1 -77 -33 -115 -102 -114 -25 1 -25 1 -26
101 0 55 2 106 4 113 5 14 41 16 77 2z"/>
<path d="M3188 702 c-16 -2 -28 -9 -29 -15 -4 -77 -3 -322 3 -336 6 -16 18
-18 105 -17 137 3 168 20 180 104 4 28 -1 38 -30 65 l-35 32 24 18 c45 34 25
118 -33 138 -33 11 -134 17 -185 11z m129 -68 c53 -14 29 -78 -31 -81 l-36 -2
0 45 c0 39 3 44 23 44 12 0 32 -3 44 -6z m29 -159 c19 -29 7 -64 -25 -71 -14
-3 -31 -7 -37 -9 -27 -8 -38 19 -35 83 1 20 5 23 42 20 29 -1 45 -8 55 -23z"/>
<path d="M920 630 c-17 -11 -24 -184 -9 -241 16 -62 99 -83 149 -37 13 12 25
18 27 13 9 -27 23 -36 52 -37 17 -1 33 1 36 3 7 8 8 275 1 288 -7 11 -54 15
-78 6 -10 -4 -13 -29 -11 -100 2 -91 1 -96 -23 -111 -22 -15 -26 -15 -49 0
-19 13 -24 23 -21 42 9 49 9 155 0 163 -15 14 -58 21 -74 11z"/>
<path d="M1314 629 c-42 -12 -66 -41 -67 -83 -1 -46 21 -70 88 -91 30 -9 55
-23 55 -30 0 -20 -23 -32 -55 -29 -16 2 -41 5 -55 6 -21 3 -26 -2 -28 -25 -3
-23 2 -30 27 -40 36 -15 111 -14 152 3 33 14 59 50 59 83 0 28 -35 77 -56 77
-25 0 -94 34 -94 47 0 19 43 26 83 15 42 -12 47 -8 47 29 0 20 -6 30 -22 35
-34 11 -99 12 -134 3z"/>
<path d="M2145 620 c-52 -26 -71 -61 -74 -136 -1 -48 3 -66 21 -94 49 -72 148
-86 212 -29 49 42 66 143 34 202 -16 32 -60 67 -83 68 -11 0 -31 3 -45 5 -14
2 -43 -5 -65 -16z m116 -109 c1 -9 2 -23 3 -31 3 -29 -16 -69 -35 -75 -11 -4
-31 0 -44 9 -21 14 -25 24 -25 67 0 31 6 56 15 65 8 9 15 13 15 9 0 -3 8 -1
18 4 13 8 21 6 35 -10 9 -12 18 -29 18 -38z"/>
<path d="M2423 627 c-9 -14 -13 -241 -6 -275 5 -20 11 -23 47 -20 l41 3 2 94
c3 99 16 131 53 131 32 0 40 -24 37 -118 -1 -57 2 -95 9 -102 12 -12 70 -17
80 -8 3 3 6 60 7 127 2 119 2 121 -25 148 -39 38 -101 38 -134 -1 -15 -16 -24
-21 -24 -13 0 32 -71 59 -87 34z"/>
<path d="M1916 621 c-3 -5 -6 -69 -7 -141 -1 -140 3 -150 46 -150 45 0 49 12
50 147 1 70 -3 134 -8 141 -11 14 -73 17 -81 3z"/>
</g>
</svg>
